PathFileType	4	(X/Y/Z)	Patient4_TMGait_0pt5_01_left_23.trc.trc
DataRate	CameraRate	NumFrames	NumMarkers	Units	OrigDataRate	OrigDataStartFrame	OrigNumFrames
78.212290502793	78.212290502793	5	33	mm	78.212290502793	18	       141
Frame#	Time	L.ASIS			Sacral			L.Shoulder			Chest			R.Shoulder			Neck			R.ASIS			R.Thigh.Superior			R.Thigh.Lateral			R.Thigh.Inferior			R.Patella			L.Thigh.Superior			L.Thigh.Lateral			L.Thigh.Inferior			L.Patella			L.Shank.Superior			L.Shank.Lateral			L.Shank.Inferior			R.Shank.Superior			R.Shank.Lateral			R.Shank.Inferior			R.Heel			R.Midfoot.Superior			R.Midfoot.Lateral			R.Toe			L.Heel			L.Midfoot.Lateral			L.Midfoot.Superior			L.Toe			L.Elbow			L.Wrist			R.Elbow			R.Wrist			
		X1	Y1	Z1	X2	Y2	Z2	X3	Y3	Z3	X4	Y4	Z4	X5	Y5	Z5	X6	Y6	Z6	X7	Y7	Z7	X8	Y8	Z8	X9	Y9	Z9	X10	Y10	Z10	X11	Y11	Z11	X12	Y12	Z12	X13	Y13	Z13	X14	Y14	Z14	X15	Y15	Z15	X16	Y16	Z16	X17	Y17	Z17	X18	Y18	Z18	X19	Y19	Z19	X20	Y20	Z20	X21	Y21	Z21	X22	Y22	Z22	X23	Y23	Z23	X24	Y24	Z24	X25	Y25	Z25	X26	Y26	Z26	X27	Y27	Z27	X28	Y28	Z28	X29	Y29	Z29	X30	Y30	Z30	X31	Y31	Z31	X32	Y32	Z32	X33	Y33	Z33	

18	31.027357142857	889.534302635912	962.476219615919	350.507244509605	697.020275353337	1006.203176217618	534.462743534874	845.978821772745	1434.807631652688	342.677312474954	970.843591375249	1360.665132872038	484.982528937572	916.018437985355	1432.698020888813	671.104866266509	871.879383906959	1493.562112141930	492.234857724531	933.862587811055	936.104146277706	622.349259445081	942.161388420137	727.541383219970	588.990226404172	849.868727420954	628.156709628307	654.659467577888	909.022509403643	567.214117809622	568.978795345173	894.760264553929	480.104206211812	572.705790669337	963.788695631638	775.237263821469	377.533839376944	913.142073872324	650.068603264192	301.063105805263	1011.698613020110	586.240757659736	365.604942500962	1039.303314163997	524.330665171152	362.084068294422	1027.189592507324	454.794963732339	349.721381313044	971.956903222113	321.652338422072	294.330571890189	1063.969342920827	227.966015954589	351.403514507060	858.838733166388	394.678715363201	579.816008843550	780.640300810855	297.794770456397	642.967824721762	807.294069415337	200.920051931926	576.287231498623	656.603682364988	43.566412207625	549.088536657347	828.895640213633	96.265987238197	580.853354026960	741.092285527959	36.657623438902	622.566143396676	949.233803559716	42.216636543135	607.910060102137	991.925441845853	41.087555916501	386.220192845913	1068.284462962694	51.367949549963	308.987288986196	1131.688652728004	134.558820605209	330.957483984413	1267.801072771142	116.879220236698	311.001638873560	742.541205398723	1091.669131267659	240.366420215036	775.162016396067	832.556366361813	224.018097351803	1023.430461233215	1104.726241544993	776.988084227547	1258.324548137478	1084.315166028567	680.191933047342	
19	31.040142857143	889.891321370809	961.534604219569	349.535077215646	697.303283167942	1005.028686194414	533.394221132828	844.785719885281	1433.908259239646	341.401151813546	970.008351395093	1360.226652155521	483.586334772151	915.148677389697	1432.145036960868	669.703333923839	870.639491684849	1492.765710918863	490.906714839722	934.230192327568	935.364893751945	621.427084455453	941.392640145222	726.492835997605	588.043338755974	848.469448108241	627.470750607469	653.922073426557	907.063073855397	566.126859462940	568.277369512346	891.977526681176	478.874607270065	571.897602736934	964.810037012830	774.443060531254	376.018901109442	912.512991708557	648.381013735853	301.159785390474	1011.936066555630	585.105105848708	364.417233383712	1039.179274623607	522.944725570026	361.509505422850	1026.808273313461	453.135724339036	349.806091857558	970.662098378399	320.123240015919	295.483102657114	1062.515851164095	226.310724239725	352.304225464339	855.372061061871	393.743553064571	579.170363619396	776.453070376368	297.582563661858	642.572373957612	802.011270723610	200.417868245382	575.943347803270	650.202930457442	43.633517963423	549.107506525346	822.501462079412	96.207887908851	580.799849058662	734.671321418246	36.651593699432	622.565621157239	942.802675847214	42.130203167407	607.947293397363	989.439670675912	40.979089502204	388.465157977215	1065.171141825524	49.959510531029	310.548116433113	1129.923376145312	131.993121267052	331.795643448860	1265.411641552818	112.190044592175	310.718349650276	741.675626824993	1090.846501185135	238.888318431984	774.406965931742	831.750072601409	222.474633028664	1026.297776404862	1105.036859004401	773.561645814902	1260.339143585831	1090.494027373308	674.100885883821	
20	31.052928571429	890.594870190389	960.482767689818	348.466865426058	697.763070084958	1003.752586231670	532.102091567262	843.580447906705	1432.907009215363	339.955883663809	969.184208981092	1359.779250714765	482.053972546798	914.200871056419	1431.555169302214	668.161565759387	869.319903090588	1491.896766831462	489.415320307704	934.795792728663	934.571514277418	620.429436989350	940.796005971207	725.367695128456	587.090970045914	847.131689661046	626.764506644847	653.138549136383	905.191869627127	564.969662262167	567.576231577799	889.241228106916	477.602131251528	571.059486838359	966.253469541454	773.552888375350	374.474034547038	912.273131830954	646.555996474496	301.325889032430	1012.530136315770	583.862078618391	363.340972462080	1039.262773841198	521.179930041185	361.066366876524	1026.365744096838	450.968473411189	350.048989406569	968.635037214530	318.382363297551	296.749852264412	1059.764587300451	223.960317574006	353.410612767127	851.951117254835	392.790145640174	578.497753642423	772.297500728593	297.375676368649	642.169193747342	796.738636212094	199.912182327798	575.595029519843	643.811467334948	43.698811884945	549.133195634606	816.112594049662	96.144055906255	580.748135344345	728.257339805764	36.633112287874	622.560096642458	936.376558735241	42.015006382967	607.999038620570	984.582650836417	40.666697829033	390.676456335063	1059.772080732221	48.118030147114	312.118805287463	1126.332215935971	128.495813286770	332.914597063944	1261.082576779686	105.792736432202	310.705331397567	740.944228868128	1089.868511931887	237.252099812532	774.145473657144	830.833467834944	220.710449209048	1028.800558716468	1105.303014450127	770.251756372716	1261.861966752162	1096.120364411364	668.266470368054	
21	31.065714285714	891.630767869192	959.328277917832	347.294763973922	698.388365064291	1002.405509608454	530.584311007289	842.394353845073	1431.811341826712	338.337280596448	968.393029205732	1359.320425832271	480.384477200758	913.192912221419	1430.925274296260	666.477779967162	867.953025184020	1490.961807717622	487.756388185721	935.552951829656	933.724467139455	619.341737256646	940.367761145154	724.162744988472	586.151363731445	845.828731611766	626.044741654360	652.300431730888	903.383972439036	563.747990543955	566.866150562441	886.533747159184	476.292162173395	570.182487222029	967.990354411309	772.502166314521	372.956571777078	912.377410448618	644.633702332267	301.492549303054	1013.360938231055	582.494457640369	362.418671690788	1039.421054802931	519.080800137409	360.801419719788	1025.843716063373	448.395649426206	350.420015649530	966.097684982765	316.448159209213	298.036797493203	1056.065934843667	221.070546839767	354.670293960332	848.554869455781	391.823046698696	577.785712624042	768.156607114492	297.179697464374	641.749595049598	791.465046902086	199.410495613776	575.239251508929	637.426307141770	43.767877214538	549.168208258708	809.726746958631	96.077981274564	580.698059403443	721.850334816331	36.606463839112	622.551756379661	929.955421677119	41.866973463129	608.067336710788	977.961987938182	40.180746235519	392.717849729846	1052.754465847109	45.992431499012	313.633627490082	1121.422063525023	124.317887863969	334.315977449813	1255.369480463859	98.155806319533	311.101380165221	740.353824654064	1088.742499985646	235.466951154126	774.358819951922	829.812139274186	218.743027794091	1030.946760145102	1105.501927094381	767.085470395101	1262.948357667476	1101.128352960041	662.728813772936	
22	31.078500000000	892.964524550452	958.097077699572	346.012740123301	699.157642017434	1001.030932420926	528.847846620999	841.262697496526	1430.639136775065	336.541565410951	967.658312889232	1358.855666162911	478.577670507832	912.150089454266	1430.267752052874	664.649123092466	866.579035813980	1489.979498905821	485.923577055932	936.484838302098	932.832657895121	618.149657528879	940.102352590150	722.886736626474	585.227519262893	844.553510929090	625.319758383978	651.390824528508	901.635187964982	562.476337667644	566.123792970797	883.867525504841	474.946642662841	569.249683387773	969.905345160743	771.269832504640	371.519291961558	912.783027342043	642.681953693949	301.594783734846	1014.333589024413	581.024346713102	361.672867856308	1039.556019717953	516.735827896637	360.727122911987	1025.247868841268	445.559822958187	350.864710936523	963.283609160490	314.385022420717	299.247516794449	1051.785073538003	217.847451662348	356.008753728522	845.182960464189	390.846454526744	577.015405383316	764.028999899000	297.006176610304	641.300178852737	786.190177029288	198.924371475092	574.870453356704	631.044952933118	43.858961068725	549.215814667284	803.346104680921	96.016573788880	580.649075486676	715.451695717936	36.584044692101	622.543969642127	923.541571497782	41.681093760834	608.152955497234	970.212349182498	39.593833181348	394.491913116835	1044.778343863519	43.764973255875	315.031610942456	1115.691681211745	119.767014904894	335.953172504954	1248.813046784683	89.824851237432	311.943816505187	739.928198469335	1087.483771455971	233.539344680252	775.028033422648	828.697398200819	216.591709932674	1032.738745765361	1105.622369381179	764.082799387533	1263.651952436089	1105.457764503003	657.524574690540	
